# xmcd
#
# Track frame offsets:
#	150
#	11226
#	23438
#	38948
#	49955
#	68152
#
# Disc length: 1150 seconds
# Revision: 0
# Processed by: cddbd v1.5.2PL0 Copyright (c) Steve Scherf et al.
# Submitted via: dBpowerAMP V12.0
#
DISCID=48047c06
DTITLE=Dawn Kenney - Sing Me Home
DYEAR=2012
DGENRE=Country
TTITLE0=One Step Ahead of the Rain
TTITLE1=Reach High
TTITLE2=Unexpected, Ordinary, Unimagined Life
TTITLE3=Out the Door
TTITLE4=Broken Dreams Sell Cheap
TTITLE5=Sing Me Home
EXTD=
EXTT0=
EXTT1=
EXTT2=
EXTT3=
EXTT4=
EXTT5=
PLAYORDER=
